<?xml version="1.0" encoding="UTF-8"?>
<!DOCTYPE svg PUBLIC "-//W3C//DTD SVG 1.1//EN" "http://www.w3.org/Graphics/SVG/1.1/DTD/svg11.dtd">
<svg xmlns="http://www.w3.org/2000/svg" version="1.1" width="497px" height="100px" style="shape-rendering:geometricPrecision; text-rendering:geometricPrecision; image-rendering:optimizeQuality; fill-rule:evenodd; clip-rule:evenodd" xmlns:xlink="http://www.w3.org/1999/xlink">
<g><path style="opacity:0.998" fill="#17a153" d="M 94.5,1.5 C 95.7054,2.68566 97.0387,2.68566 98.5,1.5C 99.209,2.40397 100.209,2.73731 101.5,2.5C 102.5,2.5 103.5,2.5 104.5,2.5C 104.5,3.16667 104.833,3.5 105.5,3.5C 105.833,3.5 106.167,3.5 106.5,3.5C 106.5,4.16667 106.833,4.5 107.5,4.5C 107.833,4.5 108.167,4.5 108.5,4.5C 108.5,5.16667 108.833,5.5 109.5,5.5C 110.272,6.69354 111.272,7.69354 112.5,8.5C 112.5,9.16667 112.833,9.5 113.5,9.5C 113.5,10.1667 113.833,10.5 114.5,10.5C 114.5,10.8333 114.5,11.1667 114.5,11.5C 114.328,12.4916 114.662,13.1583 115.5,13.5C 115.5,14.1667 115.5,14.8333 115.5,15.5C 115.5,17.5 115.5,19.5 115.5,21.5C 114.89,22.391 114.557,23.391 114.5,24.5C 114.5,25.1667 114.5,25.8333 114.5,26.5C 114.167,27.8333 113.833,29.1667 113.5,30.5C 112.833,30.5 112.5,30.8333 112.5,31.5C 112.5,31.8333 112.5,32.1667 112.5,32.5C 111.833,32.5 111.5,32.8333 111.5,33.5C 111.5,33.8333 111.5,34.1667 111.5,34.5C 110.833,34.5 110.5,34.8333 110.5,35.5C 110.5,35.8333 110.5,36.1667 110.5,36.5C 109.833,36.5 109.5,36.8333 109.5,37.5C 107.615,40.8259 105.281,43.8259 102.5,46.5C 102.631,47.2389 102.464,47.9056 102,48.5C 90.4153,60.9405 77.582,71.6071 63.5,80.5C 62.8333,80.5 62.5,80.8333 62.5,81.5C 55.9704,84.7437 49.3038,87.9104 42.5,91C 36.9161,92.6466 31.2495,93.8133 25.5,94.5C 24.8333,94.5 24.5,94.8333 24.5,95.5C 22.1256,94.3139 19.7922,94.3139 17.5,95.5C 16.791,94.596 15.791,94.2627 14.5,94.5C 13.8333,94.5 13.1667,94.5 12.5,94.5C 12.5,93.8333 12.1667,93.5 11.5,93.5C 11.1667,93.5 10.8333,93.5 10.5,93.5C 10.1583,92.6618 9.49162,92.3284 8.5,92.5C 8.5,91.8333 8.16667,91.5 7.5,91.5C 7.5,90.8333 7.16667,90.5 6.5,90.5C 6.5,89.8333 6.16667,89.5 5.5,89.5C 5.5,88.8333 5.16667,88.5 4.5,88.5C 4.5,87.8333 4.16667,87.5 3.5,87.5C 3.5,87.1667 3.5,86.8333 3.5,86.5C 3.5,85.8333 3.16667,85.5 2.5,85.5C 2.5,84.8333 2.5,84.1667 2.5,83.5C 1.28479,74.5932 2.45146,74.2599 6,82.5C 9.38922,86.0205 13.5559,87.6872 18.5,87.5C 31.9875,86.247 44.3209,81.9137 55.5,74.5C 59.0463,73.2813 62.0463,71.2813 64.5,68.5C 65.1667,68.5 65.5,68.1667 65.5,67.5C 67.5,66.1667 69.5,64.8333 71.5,63.5C 77.7446,58.0959 83.9113,52.4292 90,46.5C 92.4496,43.2434 94.6163,39.9101 96.5,36.5C 102.258,29.7098 103.758,22.0432 101,13.5C 99.7727,11.2739 97.9393,9.77385 95.5,9C 80.3188,7.96249 66.3188,11.6292 53.5,20C 50.5815,21.7088 47.7482,23.5421 45,25.5C 44.5,25 44,24.5 43.5,24C 58.5735,12.1298 75.5735,4.62983 94.5,1.5 Z"/></g>
<g><path style="opacity:0.961" fill="#467fb9" d="M 233.5,4.5 C 238.575,4.64883 243.575,5.31549 248.5,6.5C 248.823,10.226 248.489,13.8927 247.5,17.5C 240.869,13.889 234.202,13.7223 227.5,17C 220.902,23.8165 220.068,31.3165 225,39.5C 229.432,42.1654 234.266,43.1654 239.5,42.5C 239.5,39.8333 239.5,37.1667 239.5,34.5C 236.5,34.5 233.5,34.5 230.5,34.5C 230.216,31.2234 230.549,28.0567 231.5,25C 237.5,24.3333 243.5,24.3333 249.5,25C 250.647,32.7538 250.814,40.5872 250,48.5C 240.758,53.1331 231.258,53.6331 221.5,50C 211.094,43.1207 207.594,33.6207 211,21.5C 215.232,11.4268 222.732,5.76016 233.5,4.5 Z"/></g>
<g><path style="opacity:0.993" fill="#467fba" d="M 258.5,5.5 C 268.613,5.05837 278.613,5.89171 288.5,8C 299.409,17.205 301.909,28.3717 296,41.5C 292.635,46.1864 288.135,49.3531 282.5,51C 274.507,51.4997 266.507,51.6664 258.5,51.5C 258.5,36.1667 258.5,20.8333 258.5,5.5 Z M 269.5,15.5 C 284.682,14.2024 290.182,20.8691 286,35.5C 282.061,41.2105 276.561,43.5438 269.5,42.5C 269.5,33.5 269.5,24.5 269.5,15.5 Z"/></g>
<g><path style="opacity:0.94" fill="#447fba" d="M 412.5,5.5 C 419.841,5.33368 427.174,5.50034 434.5,6C 443.452,6.94532 446.952,11.7787 445,20.5C 443.542,22.96 441.709,25.1266 439.5,27C 448.585,32.3509 449.918,39.3509 443.5,48C 441.283,49.2754 438.949,50.2754 436.5,51C 428.254,51.8149 420.088,51.6483 412,50.5C 411.184,35.4255 411.351,20.4255 412.5,5.5 Z M 424.5,14.5 C 428.881,13.5338 431.881,15.0338 433.5,19C 431.881,22.9662 428.881,24.4662 424.5,23.5C 424.5,20.5 424.5,17.5 424.5,14.5 Z M 424.5,32.5 C 429.904,31.2538 433.571,33.0871 435.5,38C 433.112,42.1958 429.445,44.0291 424.5,43.5C 424.5,39.8333 424.5,36.1667 424.5,32.5 Z"/></g>
<g><path style="opacity:0.939" fill="#467fb9" d="M 147.5,5.5 C 151.437,5.20653 155.27,5.53986 159,6.5C 159.861,18.2101 159.527,29.8768 158,41.5C 156.526,46.9736 153.026,50.4736 147.5,52C 136.145,55.5166 132.145,51.6832 135.5,40.5C 141.189,44.0734 145.022,42.7401 147,36.5C 147.5,26.172 147.666,15.8387 147.5,5.5 Z"/></g>
<g><path style="opacity:0.986" fill="#467fb9" d="M 179.5,5.5 C 183.884,5.17443 188.217,5.50776 192.5,6.5C 197.74,21.388 203.073,36.2214 208.5,51C 204.5,51.6667 200.5,51.6667 196.5,51C 194.972,48.0833 193.639,45.0833 192.5,42C 187.833,41.3333 183.167,41.3333 178.5,42C 176.998,45.0047 175.998,48.1714 175.5,51.5C 171.154,51.6657 166.821,51.499 162.5,51C 168.268,35.8602 173.935,20.6935 179.5,5.5 Z M 184.5,19.5 C 185.497,19.4701 186.164,19.9701 186.5,21C 187.609,24.8235 188.609,28.6569 189.5,32.5C 186.482,32.6646 183.482,32.498 180.5,32C 182.335,27.9963 183.668,23.8296 184.5,19.5 Z"/></g>
<g><path style="opacity:0.983" fill="#457fb9" d="M 317.5,5.5 C 322.099,5.20001 326.599,5.53335 331,6.5C 336.068,21.2044 341.235,35.8711 346.5,50.5C 336.954,54.3702 331.954,51.3702 331.5,41.5C 326.489,41.3341 321.489,41.5007 316.5,42C 314.998,45.0047 313.998,48.1714 313.5,51.5C 309.5,51.5 305.5,51.5 301.5,51.5C 306.234,35.9655 311.567,20.6321 317.5,5.5 Z M 323.5,18.5 C 325.077,22.9335 326.744,27.4335 328.5,32C 325.518,32.498 322.518,32.6646 319.5,32.5C 320.231,27.643 321.564,22.9763 323.5,18.5 Z"/></g>
<g><path style="opacity:0.991" fill="#477fb9" d="M 350.5,5.5 C 356.093,5.19343 361.593,5.52676 367,6.5C 370.727,15.6815 374.061,25.0148 377,34.5C 380.759,25.3061 384.259,15.9728 387.5,6.5C 392.792,5.50515 398.125,5.17182 403.5,5.5C 403.5,20.8333 403.5,36.1667 403.5,51.5C 399.5,51.5 395.5,51.5 391.5,51.5C 391.666,42.4938 391.5,33.4938 391,24.5C 388.197,33.2416 385.197,41.9083 382,50.5C 378.606,51.4558 375.106,51.7892 371.5,51.5C 368.627,42.0831 365.461,32.7498 362,23.5C 361.5,32.8274 361.334,42.1607 361.5,51.5C 357.833,51.5 354.167,51.5 350.5,51.5C 350.5,36.1667 350.5,20.8333 350.5,5.5 Z"/></g>
<g><path style="opacity:0.987" fill="#467fb9" d="M 464.5,5.5 C 469.43,5.19749 474.263,5.53082 479,6.5C 484.277,21.4977 489.443,36.4977 494.5,51.5C 490.116,51.8256 485.783,51.4922 481.5,50.5C 480.727,47.5692 479.727,44.7359 478.5,42C 473.833,41.3333 469.167,41.3333 464.5,42C 463.273,44.7359 462.273,47.5692 461.5,50.5C 457.167,51.8333 452.833,51.8333 448.5,50.5C 454.238,35.6163 459.572,20.6163 464.5,5.5 Z M 470.5,19.5 C 473.12,23.343 474.787,27.6763 475.5,32.5C 472.833,32.5 470.167,32.5 467.5,32.5C 468.656,28.2075 469.656,23.8741 470.5,19.5 Z"/></g>
<g><path style="opacity:0.982" fill="#4d7dad" d="M 94.5,-0.5 C 97.8333,-0.5 101.167,-0.5 104.5,-0.5C 114.618,1.45582 119.952,7.62249 120.5,18C 119.378,30.737 114.378,41.5703 105.5,50.5C 105.5,49.1667 105.5,47.8333 105.5,46.5C 104.5,46.5 103.5,46.5 102.5,46.5C 105.281,43.8259 107.615,40.8259 109.5,37.5C 110.167,37.5 110.5,37.1667 110.5,36.5C 110.5,36.1667 110.5,35.8333 110.5,35.5C 111.167,35.5 111.5,35.1667 111.5,34.5C 111.5,34.1667 111.5,33.8333 111.5,33.5C 112.167,33.5 112.5,33.1667 112.5,32.5C 112.5,32.1667 112.5,31.8333 112.5,31.5C 113.167,31.5 113.5,31.1667 113.5,30.5C 113.833,29.1667 114.167,27.8333 114.5,26.5C 115.833,25.8333 115.833,25.1667 114.5,24.5C 114.557,23.391 114.89,22.391 115.5,21.5C 116.833,19.5 116.833,17.5 115.5,15.5C 115.5,14.8333 115.5,14.1667 115.5,13.5C 115.672,12.5084 115.338,11.8417 114.5,11.5C 114.5,11.1667 114.5,10.8333 114.5,10.5C 113.833,10.5 113.5,10.1667 113.5,9.5C 112.833,9.5 112.5,9.16667 112.5,8.5C 111.272,7.69354 110.272,6.69354 109.5,5.5C 108.833,5.5 108.5,5.16667 108.5,4.5C 108.167,4.5 107.833,4.5 107.5,4.5C 106.833,4.5 106.5,4.16667 106.5,3.5C 106.167,3.5 105.833,3.5 105.5,3.5C 104.833,3.5 104.5,3.16667 104.5,2.5C 103.5,2.5 102.5,2.5 101.5,2.5C 100.791,1.59603 99.791,1.26269 98.5,1.5C 97.0387,2.68566 95.7054,2.68566 94.5,1.5C 94.5,0.833333 94.5,0.166667 94.5,-0.5 Z"/></g>
<g><path style="opacity:0.993" fill="#3f71aa" d="M 51.5,29.5 C 51.6801,40.7353 51.6801,52.0686 51.5,63.5C 49.8658,68.4676 46.5325,71.8009 41.5,73.5C 39.7816,72.776 37.9483,72.1094 36,71.5C 35.6892,69.444 35.1892,67.444 34.5,65.5C 35.2739,64.2888 36.1072,64.2888 37,65.5C 38.5423,63.4346 38.709,61.4346 37.5,59.5C 37.8498,53.5989 37.8498,47.5989 37.5,41.5C 35.5328,41.7394 33.6995,41.4061 32,40.5C 31.5014,36.8484 31.3347,33.1817 31.5,29.5C 38.1667,29.5 44.8333,29.5 51.5,29.5 Z"/></g>
<g><path style="opacity:1" fill="#376599" d="M 96.5,36.5 C 94.6163,39.9101 92.4496,43.2434 90,46.5C 83.9113,52.4292 77.7446,58.0959 71.5,63.5C 70.8333,62.5 70.1667,61.5 69.5,60.5C 66.5725,52.0607 63.2392,43.7273 59.5,35.5C 60.3937,35.4827 61.3937,35.1494 62.5,34.5C 66.3258,38.8017 70.1591,43.135 74,47.5C 79.1667,41.6667 84.3333,35.8333 89.5,30C 95.4938,28.1594 97.8271,30.3261 96.5,36.5 Z"/></g>
<g><path style="opacity:0.985" fill="#233e68" d="M 51.5,29.5 C 56.5253,28.389 60.192,30.0557 62.5,34.5C 61.3937,35.1494 60.3937,35.4827 59.5,35.5C 63.2392,43.7273 66.5725,52.0607 69.5,60.5C 68.2058,59.7101 67.0391,58.7101 66,57.5C 65.5017,60.8168 65.335,64.1501 65.5,67.5C 64.8333,67.5 64.5,67.8333 64.5,68.5C 62.0463,71.2813 59.0463,73.2813 55.5,74.5C 54.1779,74.67 53.0113,74.3366 52,73.5C 51.5017,70.1832 51.335,66.8499 51.5,63.5C 51.6801,52.0686 51.6801,40.7353 51.5,29.5 Z"/></g>
<g><path style="opacity:0.987" fill="#2a4974" d="M 37.5,59.5 C 38.709,61.4346 38.5423,63.4346 37,65.5C 36.1072,64.2888 35.2739,64.2888 34.5,65.5C 35.1892,67.444 35.6892,69.444 36,71.5C 37.9483,72.1094 39.7816,72.776 41.5,73.5C 23.4125,77.9686 15.0791,70.9686 16.5,52.5C 20.1817,52.3347 23.8484,52.5014 27.5,53C 28.2744,55.405 28.7744,57.905 29,60.5C 30.9466,63.7034 33.4466,64.2034 36.5,62C 37.2524,61.3292 37.5858,60.4959 37.5,59.5 Z"/></g>
<g><path style="opacity:0.984" fill="#12a453" d="M 304.5,57.5 C 311.508,57.3337 318.508,57.5004 325.5,58C 326.704,59.3528 327.371,61.0194 327.5,63C 327.167,64.5 326.833,66 326.5,67.5C 318.26,64.4648 310.26,64.9648 302.5,69C 296.807,78.1357 299.14,84.1357 309.5,87C 315.61,87.7324 321.61,87.2324 327.5,85.5C 327.664,88.1873 327.497,90.854 327,93.5C 325.933,94.1905 324.766,94.6905 323.5,95C 316.5,95.6667 309.5,95.6667 302.5,95C 286.609,90.7995 282.109,81.2995 289,66.5C 293.558,62.3093 298.724,59.3093 304.5,57.5 Z"/></g>
<g><path style="opacity:0.974" fill="#11a352" d="M 134.5,57.5 C 140.509,57.3338 146.509,57.5005 152.5,58C 156.794,66.0886 160.961,74.2553 165,82.5C 169.039,74.2553 173.206,66.0886 177.5,58C 183.167,57.3333 188.833,57.3333 194.5,58C 195.489,70.42 195.822,82.92 195.5,95.5C 191.167,95.5 186.833,95.5 182.5,95.5C 182.666,87.16 182.5,78.8267 182,70.5C 177.961,78.7447 173.794,86.9114 169.5,95C 166.167,95.6667 162.833,95.6667 159.5,95C 154.951,87.4045 150.785,79.5712 147,71.5C 146.667,79.1667 146.333,86.8333 146,94.5C 142.256,95.626 138.423,95.7927 134.5,95C 133.176,82.5001 133.176,70.0001 134.5,57.5 Z"/></g>
<g><path style="opacity:1" fill="#0ea452" d="M 205.5,57.5 C 209.833,57.5 214.167,57.5 218.5,57.5C 218.5,70.1667 218.5,82.8333 218.5,95.5C 214.233,95.797 210.066,95.4637 206,94.5C 205.5,82.1712 205.333,69.8378 205.5,57.5 Z"/></g>
<g><path style="opacity:0.967" fill="#0fa452" d="M 229.5,57.5 C 234.179,57.3342 238.845,57.5008 243.5,58C 250.667,65.8333 257.833,73.6667 265,81.5C 265.5,73.5069 265.666,65.5069 265.5,57.5C 269.767,57.203 273.934,57.5363 278,58.5C 278.667,70.5 278.667,82.5 278,94.5C 273.921,95.6295 269.755,95.7961 265.5,95C 257.302,87.1366 249.469,78.97 242,70.5C 241.5,78.8267 241.334,87.16 241.5,95.5C 237.563,95.7935 233.73,95.4601 230,94.5C 229.5,82.1712 229.333,69.8378 229.5,57.5 Z"/></g>
<g><path style="opacity:1" fill="#12a453" d="M 335.5,57.5 C 339.833,57.5 344.167,57.5 348.5,57.5C 348.5,62.5 348.5,67.5 348.5,72.5C 355.167,72.5 361.833,72.5 368.5,72.5C 368.334,67.8215 368.501,63.1548 369,58.5C 373.333,57.1667 377.667,57.1667 382,58.5C 382.5,70.8288 382.667,83.1622 382.5,95.5C 377.901,95.8 373.401,95.4667 369,94.5C 368.501,89.8452 368.334,85.1785 368.5,80.5C 361.833,80.5 355.167,80.5 348.5,80.5C 348.5,85.5 348.5,90.5 348.5,95.5C 344.167,95.5 339.833,95.5 335.5,95.5C 335.5,82.8333 335.5,70.1667 335.5,57.5 Z"/></g>
<g><path style="opacity:0.985" fill="#0da452" d="M 392.5,57.5 C 402.839,57.3335 413.172,57.5002 423.5,58C 424.435,60.3806 424.768,62.8806 424.5,65.5C 418.5,65.5 412.5,65.5 406.5,65.5C 406.5,67.8333 406.5,70.1667 406.5,72.5C 412.167,72.5 417.833,72.5 423.5,72.5C 423.5,75.1667 423.5,77.8333 423.5,80.5C 417.833,80.5 412.167,80.5 406.5,80.5C 406.5,82.8333 406.5,85.1667 406.5,87.5C 412.833,87.5 419.167,87.5 425.5,87.5C 425.5,90.1667 425.5,92.8333 425.5,95.5C 414.585,95.8203 403.752,95.487 393,94.5C 392.5,82.1712 392.333,69.8378 392.5,57.5 Z"/></g>
<g><path style="opacity:0.975" fill="#0ea552" d="M 432.5,57.5 C 438.509,57.3338 444.509,57.5005 450.5,58C 455.049,65.5955 459.215,73.4288 463,81.5C 467.294,73.746 471.461,65.9126 475.5,58C 481.749,57.1913 487.916,57.358 494,58.5C 494.821,70.7425 494.654,82.9092 493.5,95C 489.245,95.7961 485.079,95.6295 481,94.5C 480.667,86.8333 480.333,79.1667 480,71.5C 476.167,79.1667 472.333,86.8333 468.5,94.5C 464.878,95.6586 461.211,95.8253 457.5,95C 453.19,86.8802 449.024,78.7135 445,70.5C 444.5,78.8267 444.334,87.16 444.5,95.5C 440.563,95.7935 436.73,95.4601 433,94.5C 432.5,82.1712 432.333,69.8378 432.5,57.5 Z"/></g>
<g><path style="opacity:0.956" fill="#2f486e" d="M 102.5,46.5 C 103.5,46.5 104.5,46.5 105.5,46.5C 105.5,47.8333 105.5,49.1667 105.5,50.5C 102.814,54.5085 99.6473,58.1751 96,61.5C 95.501,65.8206 95.3343,70.1539 95.5,74.5C 92.4486,74.3645 89.4486,74.6978 86.5,75.5C 84.7257,75.1132 83.059,74.4465 81.5,73.5C 65.0122,86.2457 46.6788,94.9124 26.5,99.5C 23.1667,99.5 19.8333,99.5 16.5,99.5C 8.83159,97.837 3.16492,93.5037 -0.5,86.5C -0.5,84.8333 -0.5,83.1667 -0.5,81.5C 0.777652,81.7822 1.77765,82.4489 2.5,83.5C 2.5,84.1667 2.5,84.8333 2.5,85.5C 3.16667,85.5 3.5,85.8333 3.5,86.5C 3.5,86.8333 3.5,87.1667 3.5,87.5C 4.16667,87.5 4.5,87.8333 4.5,88.5C 5.16667,88.5 5.5,88.8333 5.5,89.5C 6.16667,89.5 6.5,89.8333 6.5,90.5C 7.16667,90.5 7.5,90.8333 7.5,91.5C 8.16667,91.5 8.5,91.8333 8.5,92.5C 8.84171,93.3382 9.50838,93.6716 10.5,93.5C 10.8333,93.5 11.1667,93.5 11.5,93.5C 12.1667,93.5 12.5,93.8333 12.5,94.5C 13.1667,94.5 13.8333,94.5 14.5,94.5C 15.209,95.404 16.209,95.7373 17.5,95.5C 19.7922,94.3139 22.1256,94.3139 24.5,95.5C 25.1667,95.5 25.5,95.1667 25.5,94.5C 31.2495,93.8133 36.9161,92.6466 42.5,91C 49.3038,87.9104 55.9704,84.7437 62.5,81.5C 63.1667,81.5 63.5,81.1667 63.5,80.5C 77.582,71.6071 90.4153,60.9405 102,48.5C 102.464,47.9056 102.631,47.2389 102.5,46.5 Z"/></g>
</svg>
