<?xml version="1.0" encoding="UTF-8"?>
<!DOCTYPE svg PUBLIC "-//W3C//DTD SVG 1.1//EN" "http://www.w3.org/Graphics/SVG/1.1/DTD/svg11.dtd">
<svg xmlns="http://www.w3.org/2000/svg" version="1.1" width="497px" height="100px" style="shape-rendering:geometricPrecision; text-rendering:geometricPrecision; image-rendering:optimizeQuality; fill-rule:evenodd; clip-rule:evenodd" xmlns:xlink="http://www.w3.org/1999/xlink">
<g><path style="opacity:0.998" fill="#17a152" d="M 94.5,1.5 C 95.7054,2.68566 97.0387,2.68566 98.5,1.5C 99.209,2.40397 100.209,2.73731 101.5,2.5C 102.5,2.5 103.5,2.5 104.5,2.5C 104.5,3.16667 104.833,3.5 105.5,3.5C 105.833,3.5 106.167,3.5 106.5,3.5C 106.5,4.16667 106.833,4.5 107.5,4.5C 107.833,4.5 108.167,4.5 108.5,4.5C 108.5,5.16667 108.833,5.5 109.5,5.5C 110.272,6.69354 111.272,7.69354 112.5,8.5C 112.5,9.16667 112.833,9.5 113.5,9.5C 113.5,10.1667 113.833,10.5 114.5,10.5C 114.5,10.8333 114.5,11.1667 114.5,11.5C 114.328,12.4916 114.662,13.1583 115.5,13.5C 115.5,14.1667 115.5,14.8333 115.5,15.5C 115.5,17.5 115.5,19.5 115.5,21.5C 114.89,22.391 114.557,23.391 114.5,24.5C 114.5,25.1667 114.5,25.8333 114.5,26.5C 114.167,27.8333 113.833,29.1667 113.5,30.5C 112.833,30.5 112.5,30.8333 112.5,31.5C 112.5,31.8333 112.5,32.1667 112.5,32.5C 111.833,32.5 111.5,32.8333 111.5,33.5C 111.5,33.8333 111.5,34.1667 111.5,34.5C 110.833,34.5 110.5,34.8333 110.5,35.5C 110.5,35.8333 110.5,36.1667 110.5,36.5C 109.833,36.5 109.5,36.8333 109.5,37.5C 102.644,48.0298 94.3108,57.3631 84.5,65.5C 77.755,70.9202 70.755,75.9202 63.5,80.5C 62.8333,80.5 62.5,80.8333 62.5,81.5C 55.9704,84.7437 49.3038,87.9104 42.5,91C 36.9161,92.6466 31.2495,93.8133 25.5,94.5C 24.8333,94.5 24.5,94.8333 24.5,95.5C 22.1256,94.3139 19.7922,94.3139 17.5,95.5C 16.791,94.596 15.791,94.2627 14.5,94.5C 13.8333,94.5 13.1667,94.5 12.5,94.5C 12.5,93.8333 12.1667,93.5 11.5,93.5C 11.1667,93.5 10.8333,93.5 10.5,93.5C 10.1583,92.6618 9.49162,92.3284 8.5,92.5C 8.5,91.8333 8.16667,91.5 7.5,91.5C 7.5,90.8333 7.16667,90.5 6.5,90.5C 6.5,89.8333 6.16667,89.5 5.5,89.5C 5.5,88.8333 5.16667,88.5 4.5,88.5C 4.5,87.8333 4.16667,87.5 3.5,87.5C 3.5,87.1667 3.5,86.8333 3.5,86.5C 3.5,85.8333 3.16667,85.5 2.5,85.5C 2.5,84.8333 2.5,84.1667 2.5,83.5C 1.28479,74.5932 2.45146,74.2599 6,82.5C 9.38922,86.0205 13.5559,87.6872 18.5,87.5C 31.9875,86.247 44.3209,81.9137 55.5,74.5C 59.0463,73.2813 62.0463,71.2813 64.5,68.5C 65.1667,68.5 65.5,68.1667 65.5,67.5C 67.5,66.1667 69.5,64.8333 71.5,63.5C 77.7446,58.0959 83.9113,52.4292 90,46.5C 92.4496,43.2434 94.6163,39.9101 96.5,36.5C 102.258,29.7098 103.758,22.0432 101,13.5C 99.7727,11.2739 97.9393,9.77385 95.5,9C 80.3188,7.96249 66.3188,11.6292 53.5,20C 50.5815,21.7088 47.7482,23.5421 45,25.5C 44.5,25 44,24.5 43.5,24C 58.5735,12.1298 75.5735,4.62983 94.5,1.5 Z"/></g>
<g><path style="opacity:1" fill="#f0f0f0" d="M 234.5,4.5 C 239.097,5.38232 243.763,6.04899 248.5,6.5C 248.665,10.1817 248.499,13.8484 248,17.5C 239.144,12.5937 231.144,13.5937 224,20.5C 220.445,27.2922 220.945,33.7922 225.5,40C 229.912,42.8513 234.579,43.6846 239.5,42.5C 239.5,39.8333 239.5,37.1667 239.5,34.5C 236.5,34.5 233.5,34.5 230.5,34.5C 230.5,31.5 230.5,28.5 230.5,25.5C 237.167,25.5 243.833,25.5 250.5,25.5C 250.666,33.1739 250.5,40.8406 250,48.5C 239.414,53.9014 228.914,53.7347 218.5,48C 212.54,43.0765 209.873,36.7432 210.5,29C 211.281,13.7197 219.281,5.55298 234.5,4.5 Z"/></g>
<g><path style="opacity:1" fill="#eff0f0" d="M 147.5,5.5 C 151.167,5.5 154.833,5.5 158.5,5.5C 158.922,18.5606 158.422,31.5606 157,44.5C 151.309,52.2387 143.809,54.5721 134.5,51.5C 134.335,47.8183 134.501,44.1516 135,40.5C 140.203,43.8609 144.203,42.8609 147,37.5C 147.5,26.8385 147.667,16.1719 147.5,5.5 Z"/></g>
<g><path style="opacity:1" fill="#eeeeee" d="M 179.5,5.5 C 183.833,5.5 188.167,5.5 192.5,5.5C 197.532,20.7612 202.865,35.9279 208.5,51C 204.5,51.6667 200.5,51.6667 196.5,51C 194.998,47.9953 193.998,44.8286 193.5,41.5C 188.167,41.5 182.833,41.5 177.5,41.5C 176.833,44.8333 176.167,48.1667 175.5,51.5C 171.154,51.6657 166.821,51.499 162.5,51C 168.268,35.8602 173.935,20.6935 179.5,5.5 Z M 184.5,18.5 C 186.958,22.6726 188.958,27.1726 190.5,32C 187.167,32.6667 183.833,32.6667 180.5,32C 182.541,27.7108 183.874,23.2108 184.5,18.5 Z"/></g>
<g><path style="opacity:1" fill="#f1f1f0" d="M 258.5,5.5 C 269.075,4.82635 279.408,5.99301 289.5,9C 299.492,18.1532 301.659,28.9865 296,41.5C 292.635,46.1864 288.135,49.3531 282.5,51C 274.507,51.4997 266.507,51.6664 258.5,51.5C 258.5,36.1667 258.5,20.8333 258.5,5.5 Z M 269.5,15.5 C 284.682,14.2024 290.182,20.8691 286,35.5C 282.156,41.5003 276.656,43.8336 269.5,42.5C 269.5,33.5 269.5,24.5 269.5,15.5 Z"/></g>
<g><path style="opacity:1" fill="#efefef" d="M 317.5,5.5 C 322.322,4.93466 326.822,5.60133 331,7.5C 336.167,21.8333 341.333,36.1667 346.5,50.5C 342.541,51.6599 338.541,51.8265 334.5,51C 332.998,47.9953 331.998,44.8286 331.5,41.5C 326.489,41.3341 321.489,41.5007 316.5,42C 314.998,45.0047 313.998,48.1714 313.5,51.5C 309.5,51.5 305.5,51.5 301.5,51.5C 306.271,35.9604 311.605,20.6271 317.5,5.5 Z M 323.5,18.5 C 325.077,22.9335 326.744,27.4335 328.5,32C 325.167,32.6667 321.833,32.6667 318.5,32C 320.269,27.5267 321.935,23.0267 323.5,18.5 Z"/></g>
<g><path style="opacity:0.184" fill="#999591" d="M 366.5,6.5 C 361.5,6.5 356.5,6.5 351.5,6.5C 351.5,21.5 351.5,36.5 351.5,51.5C 350.504,36.3424 350.17,21.0091 350.5,5.5C 356.026,5.17859 361.36,5.51192 366.5,6.5 Z"/></g>
<g><path style="opacity:1" fill="#f1f1f0" d="M 351.5,51.5 C 351.5,36.5 351.5,21.5 351.5,6.5C 356.5,6.5 361.5,6.5 366.5,6.5C 370.462,15.8773 373.962,25.544 377,35.5C 380.795,25.9479 384.295,16.2812 387.5,6.5C 392.792,5.50515 398.125,5.17182 403.5,5.5C 403.5,20.8333 403.5,36.1667 403.5,51.5C 399.5,51.5 395.5,51.5 391.5,51.5C 391.666,42.4938 391.5,33.4938 391,24.5C 387.803,33.0917 384.803,41.7584 382,50.5C 378.606,51.4558 375.106,51.7892 371.5,51.5C 368.641,42.0903 365.474,32.7569 362,23.5C 361.5,32.8274 361.334,42.1607 361.5,51.5C 358.167,51.5 354.833,51.5 351.5,51.5 Z"/></g>
<g><path style="opacity:1" fill="#f3f2f1" d="M 412.5,5.5 C 419.508,5.33371 426.508,5.50038 433.5,6C 442.977,6.46846 446.81,11.3018 445,20.5C 443.5,23.3333 441.333,25.5 438.5,27C 448.208,31.5244 450.042,38.3578 444,47.5C 442.581,48.4601 441.081,49.2935 439.5,50C 430.582,51.4137 421.582,51.9137 412.5,51.5C 412.5,36.1667 412.5,20.8333 412.5,5.5 Z M 423.5,14.5 C 425.857,14.3367 428.19,14.5034 430.5,15C 434.5,17.6667 434.5,20.3333 430.5,23C 428.19,23.4966 425.857,23.6633 423.5,23.5C 423.5,20.5 423.5,17.5 423.5,14.5 Z M 423.5,32.5 C 426.518,32.3354 429.518,32.502 432.5,33C 436.862,37.2624 436.195,40.5957 430.5,43C 428.19,43.4966 425.857,43.6633 423.5,43.5C 423.5,39.8333 423.5,36.1667 423.5,32.5 Z"/></g>
<g><path style="opacity:1" fill="#f1f1f0" d="M 464.5,5.5 C 469.214,5.17338 473.88,5.50671 478.5,6.5C 484.03,21.0901 489.364,35.7568 494.5,50.5C 490.167,51.8333 485.833,51.8333 481.5,50.5C 480.727,47.5692 479.727,44.7359 478.5,42C 473.833,41.3333 469.167,41.3333 464.5,42C 462.998,45.0047 461.998,48.1714 461.5,51.5C 457.116,51.8256 452.783,51.4922 448.5,50.5C 454.238,35.6163 459.572,20.6163 464.5,5.5 Z M 470.5,19.5 C 473.12,23.343 474.787,27.6763 475.5,32.5C 472.482,32.6646 469.482,32.498 466.5,32C 468.335,27.9963 469.668,23.8296 470.5,19.5 Z"/></g>
<g><path style="opacity:1" fill="#3f74ad" d="M 51.5,29.5 C 51.6801,40.7353 51.6801,52.0686 51.5,63.5C 49.8658,68.4676 46.5325,71.8009 41.5,73.5C 39.7816,72.776 37.9483,72.1094 36,71.5C 35.6892,69.444 35.1892,67.444 34.5,65.5C 35.2739,64.2888 36.1072,64.2888 37,65.5C 38.5423,63.4346 38.709,61.4346 37.5,59.5C 37.8498,53.5989 37.8498,47.5989 37.5,41.5C 35.5328,41.7394 33.6995,41.4061 32,40.5C 31.5014,36.8484 31.3347,33.1817 31.5,29.5C 38.1667,29.5 44.8333,29.5 51.5,29.5 Z"/></g>
<g><path style="opacity:1" fill="#376599" d="M 96.5,36.5 C 94.6163,39.9101 92.4496,43.2434 90,46.5C 83.9113,52.4292 77.7446,58.0959 71.5,63.5C 70.8333,62.5 70.1667,61.5 69.5,60.5C 66.5725,52.0607 63.2392,43.7273 59.5,35.5C 60.3937,35.4827 61.3937,35.1494 62.5,34.5C 66.3258,38.8017 70.1591,43.135 74,47.5C 79.1667,41.6667 84.3333,35.8333 89.5,30C 95.4938,28.1594 97.8271,30.3261 96.5,36.5 Z"/></g>
<g><path style="opacity:0.985" fill="#233e68" d="M 51.5,29.5 C 56.5253,28.389 60.192,30.0557 62.5,34.5C 61.3937,35.1494 60.3937,35.4827 59.5,35.5C 63.2392,43.7273 66.5725,52.0607 69.5,60.5C 68.2058,59.7101 67.0391,58.7101 66,57.5C 65.5017,60.8168 65.335,64.1501 65.5,67.5C 64.8333,67.5 64.5,67.8333 64.5,68.5C 62.0463,71.2813 59.0463,73.2813 55.5,74.5C 54.1779,74.67 53.0113,74.3366 52,73.5C 51.5017,70.1832 51.335,66.8499 51.5,63.5C 51.6801,52.0686 51.6801,40.7353 51.5,29.5 Z"/></g>
<g><path style="opacity:0.987" fill="#2a4974" d="M 37.5,59.5 C 38.709,61.4346 38.5423,63.4346 37,65.5C 36.1072,64.2888 35.2739,64.2888 34.5,65.5C 35.1892,67.444 35.6892,69.444 36,71.5C 37.9483,72.1094 39.7816,72.776 41.5,73.5C 23.4125,77.9686 15.0791,70.9686 16.5,52.5C 20.1817,52.3347 23.8484,52.5014 27.5,53C 28.2744,55.405 28.7744,57.905 29,60.5C 30.9466,63.7034 33.4466,64.2034 36.5,62C 37.2524,61.3292 37.5858,60.4959 37.5,59.5 Z"/></g>
<g><path style="opacity:1" fill="#ededed" d="M 134.5,57.5 C 140.509,57.3338 146.509,57.5005 152.5,58C 156.794,66.0886 160.961,74.2553 165,82.5C 169.039,74.2553 173.206,66.0886 177.5,58C 183.167,57.3333 188.833,57.3333 194.5,58C 195.489,70.42 195.822,82.92 195.5,95.5C 191.167,95.5 186.833,95.5 182.5,95.5C 182.666,87.16 182.5,78.8267 182,70.5C 177.961,78.7447 173.794,86.9114 169.5,95C 166.167,95.6667 162.833,95.6667 159.5,95C 154.951,87.4045 150.785,79.5712 147,71.5C 146.667,79.1667 146.333,86.8333 146,94.5C 142.27,95.4601 138.437,95.7935 134.5,95.5C 134.5,82.8333 134.5,70.1667 134.5,57.5 Z"/></g>
<g><path style="opacity:1" fill="#f0f0f0" d="M 205.5,57.5 C 209.833,57.5 214.167,57.5 218.5,57.5C 218.5,70.1667 218.5,82.8333 218.5,95.5C 214.233,95.797 210.066,95.4637 206,94.5C 205.5,82.1712 205.333,69.8378 205.5,57.5 Z"/></g>
<g><path style="opacity:1" fill="#f0f0f0" d="M 229.5,57.5 C 234.179,57.3342 238.845,57.5008 243.5,58C 250.667,65.8333 257.833,73.6667 265,81.5C 265.5,73.5069 265.666,65.5069 265.5,57.5C 269.5,57.5 273.5,57.5 277.5,57.5C 277.5,70.1667 277.5,82.8333 277.5,95.5C 273.486,95.6655 269.486,95.4988 265.5,95C 257.302,87.1366 249.469,78.97 242,70.5C 241.5,78.8267 241.334,87.16 241.5,95.5C 237.563,95.7935 233.73,95.4601 230,94.5C 229.5,82.1712 229.333,69.8378 229.5,57.5 Z"/></g>
<g><path style="opacity:1" fill="#eeeeee" d="M 304.5,57.5 C 312.201,57.3089 319.868,57.6423 327.5,58.5C 327.817,61.5719 327.484,64.5719 326.5,67.5C 320.987,65.55 315.32,65.05 309.5,66C 300.172,68.156 297.339,73.656 301,82.5C 302.952,84.8936 305.452,86.3936 308.5,87C 314.943,87.7686 321.277,87.2686 327.5,85.5C 327.777,88.4475 327.444,91.2809 326.5,94C 317.5,96 308.5,96 299.5,94C 286.145,88.6018 282.645,79.4351 289,66.5C 293.558,62.3093 298.724,59.3093 304.5,57.5 Z"/></g>
<g><path style="opacity:1" fill="#f4f4f4" d="M 369.5,94.5 C 369.5,89.5 369.5,84.5 369.5,79.5C 362.167,79.5 354.833,79.5 347.5,79.5C 347.5,84.5 347.5,89.5 347.5,94.5C 343.833,94.5 340.167,94.5 336.5,94.5C 336.5,82.5 336.5,70.5 336.5,58.5C 340.167,58.5 343.833,58.5 347.5,58.5C 347.181,63.3633 347.514,68.03 348.5,72.5C 355.167,72.5 361.833,72.5 368.5,72.5C 368.334,67.8215 368.501,63.1548 369,58.5C 373.333,57.1667 377.667,57.1667 382,58.5C 382.5,70.8288 382.667,83.1622 382.5,95.5C 377.968,95.8182 373.634,95.4849 369.5,94.5 Z"/></g>
<g><path style="opacity:0.31" fill="#a39f96" d="M 423.5,58.5 C 413.5,58.5 403.5,58.5 393.5,58.5C 393.5,70.5 393.5,82.5 393.5,94.5C 392.505,82.3446 392.171,70.0113 392.5,57.5C 403.014,57.1724 413.347,57.5058 423.5,58.5 Z"/></g>
<g><path style="opacity:1" fill="#f0f0f0" d="M 423.5,58.5 C 424.468,60.6074 424.802,62.9407 424.5,65.5C 418.167,65.5 411.833,65.5 405.5,65.5C 405.5,67.8333 405.5,70.1667 405.5,72.5C 411.5,72.5 417.5,72.5 423.5,72.5C 423.5,75.1667 423.5,77.8333 423.5,80.5C 417.5,80.5 411.5,80.5 405.5,80.5C 405.5,82.8333 405.5,85.1667 405.5,87.5C 412.167,87.5 418.833,87.5 425.5,87.5C 425.5,90.1667 425.5,92.8333 425.5,95.5C 414.654,95.8278 403.987,95.4944 393.5,94.5C 393.5,82.5 393.5,70.5 393.5,58.5C 403.5,58.5 413.5,58.5 423.5,58.5 Z"/></g>
<g><path style="opacity:1" fill="#f1f0ef" d="M 432.5,57.5 C 438.509,57.3338 444.509,57.5005 450.5,58C 455.049,65.5955 459.215,73.4288 463,81.5C 467.294,73.746 471.461,65.9126 475.5,58C 481.491,57.5005 487.491,57.3338 493.5,57.5C 493.5,70.1667 493.5,82.8333 493.5,95.5C 489.233,95.797 485.066,95.4637 481,94.5C 480.667,86.8333 480.333,79.1667 480,71.5C 476.167,79.1667 472.333,86.8333 468.5,94.5C 464.878,95.6586 461.211,95.8253 457.5,95C 453.206,86.9114 449.039,78.7447 445,70.5C 444.5,78.8267 444.334,87.16 444.5,95.5C 440.563,95.7935 436.73,95.4601 433,94.5C 432.5,82.1712 432.333,69.8378 432.5,57.5 Z"/></g>
<g><path style="opacity:0.997" fill="#3e699b" d="M 94.5,-0.5 C 97.8333,-0.5 101.167,-0.5 104.5,-0.5C 117.413,2.29684 122.579,10.2968 120,23.5C 115.554,38.3867 107.554,51.0534 96,61.5C 95.5012,65.4862 95.3345,69.4862 95.5,73.5C 89.4681,74.116 85.8014,71.4494 84.5,65.5C 94.3108,57.3631 102.644,48.0298 109.5,37.5C 110.167,37.5 110.5,37.1667 110.5,36.5C 110.5,36.1667 110.5,35.8333 110.5,35.5C 111.167,35.5 111.5,35.1667 111.5,34.5C 111.5,34.1667 111.5,33.8333 111.5,33.5C 112.167,33.5 112.5,33.1667 112.5,32.5C 112.5,32.1667 112.5,31.8333 112.5,31.5C 113.167,31.5 113.5,31.1667 113.5,30.5C 113.833,29.1667 114.167,27.8333 114.5,26.5C 115.833,25.8333 115.833,25.1667 114.5,24.5C 114.557,23.391 114.89,22.391 115.5,21.5C 116.833,19.5 116.833,17.5 115.5,15.5C 115.5,14.8333 115.5,14.1667 115.5,13.5C 115.672,12.5084 115.338,11.8417 114.5,11.5C 114.5,11.1667 114.5,10.8333 114.5,10.5C 113.833,10.5 113.5,10.1667 113.5,9.5C 112.833,9.5 112.5,9.16667 112.5,8.5C 111.272,7.69354 110.272,6.69354 109.5,5.5C 108.833,5.5 108.5,5.16667 108.5,4.5C 108.167,4.5 107.833,4.5 107.5,4.5C 106.833,4.5 106.5,4.16667 106.5,3.5C 106.167,3.5 105.833,3.5 105.5,3.5C 104.833,3.5 104.5,3.16667 104.5,2.5C 103.5,2.5 102.5,2.5 101.5,2.5C 100.791,1.59603 99.791,1.26269 98.5,1.5C 97.0387,2.68566 95.7054,2.68566 94.5,1.5C 94.5,0.833333 94.5,0.166667 94.5,-0.5 Z"/></g>
<g><path style="opacity:0.498" fill="#aeadac" d="M 348.5,72.5 C 347.514,68.03 347.181,63.3633 347.5,58.5C 343.833,58.5 340.167,58.5 336.5,58.5C 336.5,70.5 336.5,82.5 336.5,94.5C 340.167,94.5 343.833,94.5 347.5,94.5C 347.5,89.5 347.5,84.5 347.5,79.5C 354.833,79.5 362.167,79.5 369.5,79.5C 369.5,84.5 369.5,89.5 369.5,94.5C 368.514,90.03 368.181,85.3633 368.5,80.5C 361.833,80.5 355.167,80.5 348.5,80.5C 348.5,85.5 348.5,90.5 348.5,95.5C 344.167,95.5 339.833,95.5 335.5,95.5C 335.5,82.8333 335.5,70.1667 335.5,57.5C 339.833,57.5 344.167,57.5 348.5,57.5C 348.5,62.5 348.5,67.5 348.5,72.5 Z"/></g>
<g><path style="opacity:0.901" fill="#2e4669" d="M 84.5,65.5 C 85.8014,71.4494 89.4681,74.116 95.5,73.5C 90.8657,75.4912 86.199,75.4912 81.5,73.5C 65.0122,86.2457 46.6788,94.9124 26.5,99.5C 23.1667,99.5 19.8333,99.5 16.5,99.5C 8.83159,97.837 3.16492,93.5037 -0.5,86.5C -0.5,84.8333 -0.5,83.1667 -0.5,81.5C 0.777652,81.7822 1.77765,82.4489 2.5,83.5C 2.5,84.1667 2.5,84.8333 2.5,85.5C 3.16667,85.5 3.5,85.8333 3.5,86.5C 3.5,86.8333 3.5,87.1667 3.5,87.5C 4.16667,87.5 4.5,87.8333 4.5,88.5C 5.16667,88.5 5.5,88.8333 5.5,89.5C 6.16667,89.5 6.5,89.8333 6.5,90.5C 7.16667,90.5 7.5,90.8333 7.5,91.5C 8.16667,91.5 8.5,91.8333 8.5,92.5C 8.84171,93.3382 9.50838,93.6716 10.5,93.5C 10.8333,93.5 11.1667,93.5 11.5,93.5C 12.1667,93.5 12.5,93.8333 12.5,94.5C 13.1667,94.5 13.8333,94.5 14.5,94.5C 15.209,95.404 16.209,95.7373 17.5,95.5C 19.7922,94.3139 22.1256,94.3139 24.5,95.5C 25.1667,95.5 25.5,95.1667 25.5,94.5C 31.2495,93.8133 36.9161,92.6466 42.5,91C 49.3038,87.9104 55.9704,84.7437 62.5,81.5C 63.1667,81.5 63.5,81.1667 63.5,80.5C 70.755,75.9202 77.755,70.9202 84.5,65.5 Z"/></g>
</svg>
